<svg id="Capa_1" data-name="Capa 1" xmlns="http://www.w3.org/2000/svg" xmlns:xlink="http://www.w3.org/1999/xlink" viewBox="0 0 512 486.02"><defs><linearGradient id="linear-gradient" x1="277.61" y1="333.01" x2="233.61" y2="849.01" gradientTransform="translate(0 -340.88)" gradientUnits="userSpaceOnUse"><stop offset="0" stop-color="#faf6df" stop-opacity="0"/><stop offset="1" stop-color="#f6efc8"/></linearGradient></defs><title>rating</title><path d="M512,245.51c0-27.63-12.5-53.53-34.35-75.84a206.7,206.7,0,0,1-37.51-52.75C409.25,54.7,356.59,13.73,296.8,13.73c-42.48,0-81.36,20.69-111.4,55a191.64,191.64,0,0,1-73,51.37C44.58,147.34,0,193.34,0,245.51s44.58,98.17,112.41,125.41a191.64,191.64,0,0,1,73,51.37c30,34.31,68.92,55,111.4,55,59.79,0,112.45-41,143.34-103.19a206.7,206.7,0,0,1,37.51-52.75C499.5,299,512,273.14,512,245.51Z" transform="translate(0 0)" style="fill:url(#linear-gradient)"/><path d="M426.22,449.58,370.46,296.35l-5.12-14.06,11,.12a10,10,0,0,0,9.59-13.19L381.82,257a10,10,0,0,1,6.28-12.67l.22-.07,12.27-3.84a10,10,0,0,0,6.52-12.55,9.89,9.89,0,0,0-1.52-3L398,214.62a10,10,0,0,1,2.06-14l.18-.13L410.68,193a10,10,0,0,0,2.37-13.94,9.88,9.88,0,0,0-2.37-2.37l-10.48-7.45a10,10,0,0,1-2.29-14l.09-.12,7.67-10.32a10,10,0,0,0-2-14,10.13,10.13,0,0,0-3-1.52L388.4,125.5A10,10,0,0,1,381.83,113c0-.08.05-.15.07-.22L386,100.57a10,10,0,0,0-9.59-13.19l-12.86.14a10,10,0,0,1-10.2-9.8v-.31l.15-12.86A10,10,0,0,0,340.32,55l-12.19,4.11a10,10,0,0,1-12.67-6.28,1.72,1.72,0,0,1-.07-.21l-3.84-12.28A10,10,0,0,0,299,33.83a9.89,9.89,0,0,0-3,1.52L285.72,43a10,10,0,0,1-14-2.06l-.13-.18-7.45-10.58a10,10,0,0,0-13.94-2.37,9.88,9.88,0,0,0-2.37,2.37L240.4,40.7a10,10,0,0,1-13.94,2.37l-.18-.13L216,35.26a10,10,0,0,0-14,2,10.13,10.13,0,0,0-1.52,3L196.6,52.58a10,10,0,0,1-12.53,6.56l-.21-.07L171.67,55a10,10,0,0,0-13.19,9.59l.14,12.86a10,10,0,0,1-9.89,10.11h-.22l-12.86-.14a10,10,0,0,0-9.59,13.19l4.11,12.19a10,10,0,0,1-6.28,12.67l-.21.07-12.28,3.84a10,10,0,0,0-6.52,12.55,9.89,9.89,0,0,0,1.52,3l7.6,10.27a10,10,0,0,1-2.06,14l-.18.13-10.49,7.45a10,10,0,0,0-2.37,13.94,9.88,9.88,0,0,0,2.37,2.37l10.49,7.45a10,10,0,0,1,2.37,13.94l-.13.18-7.68,10.32a10,10,0,0,0,2,14,10.13,10.13,0,0,0,3,1.52l12.28,3.84a10,10,0,0,1,6.65,12.48l-.08.24-4.11,12.19a10,10,0,0,0,9.59,13.19l11-.12-5.12,14.06L85.78,449.58a3.8,3.8,0,0,0,2.28,4.88,3.74,3.74,0,0,0,2,.17l47.82-8.76a3.81,3.81,0,0,1,3.62,1.32l31,37.45a3.82,3.82,0,0,0,6.51-1.13l52-142.68,5.47-15a9.92,9.92,0,0,1,4,3.29l7.44,10.49A10,10,0,0,0,261.85,342a9.88,9.88,0,0,0,2.37-2.37l7.45-10.49a9.92,9.92,0,0,1,4-3.29l5.47,15L333,483.51a3.82,3.82,0,0,0,6.53,1.13l31-37.45a3.81,3.81,0,0,1,3.62-1.32L422,454.63a3.81,3.81,0,0,0,4.44-3.06,3.86,3.86,0,0,0-.17-2Z" transform="translate(0 0)" style="fill:#d8bc19;opacity:0.10000000149011612;isolation:isolate"/><path d="M422,433.63l-47.82-8.76a3.81,3.81,0,0,0-3.62,1.32l-31,37.45a3.81,3.81,0,0,1-5.37.55,3.71,3.71,0,0,1-1.19-1.68L281.05,319.83l-22.59-62.07,93.24-33.94,18.76,51.53,55.76,153.23a3.8,3.8,0,0,1-2.28,4.88,3.74,3.74,0,0,1-2,.17Z" transform="translate(0 0)" style="fill:#fff"/><path d="M394.14,428.54l-20-3.67a3.81,3.81,0,0,0-3.62,1.32l-13,15.68L315.21,325.58l-28.44-78.13,36.61-13.32,26.68,73.31Z" transform="translate(0 0)" style="fill:#ebdd8a"/><path d="M253.54,257.76,231,319.83,179,462.51a3.82,3.82,0,0,1-6.53,1.13l-31-37.45a3.81,3.81,0,0,0-3.62-1.32L90,433.63a3.81,3.81,0,0,1-4.44-3.06,3.86,3.86,0,0,1,.17-2l55.76-153.23,18.76-51.53Z" transform="translate(0 0)" style="fill:#fff"/><path d="M225.23,247.45l-28.44,78.13L154.47,441.87l-13-15.68a3.81,3.81,0,0,0-3.62-1.32l-20,3.67,44.08-121.1,26.68-73.31Z" transform="translate(0 0)" style="fill:#ebdd8a"/><path d="M264.15,9.21,271.6,19.7a10,10,0,0,0,13.94,2.37l.18-.13L296,14.26a10,10,0,0,1,15.52,5l3.83,12.28a10,10,0,0,0,12.53,6.56l.21-.07,12.23-4A10,10,0,0,1,353,40.28a9.87,9.87,0,0,1,.53,3.32l-.15,12.86a10,10,0,0,0,9.89,10.11h.22l12.87-.14a10,10,0,0,1,9.58,13.19l-4.11,12.19a10,10,0,0,0,6.28,12.67l.22.07,12.27,3.84a10,10,0,0,1,6.52,12.55,9.89,9.89,0,0,1-1.52,3L398,134.17a10,10,0,0,0,2,14l.19.14,10.49,7.44a10,10,0,0,1,2.37,13.94,9.88,9.88,0,0,1-2.37,2.37l-10.49,7.44a10,10,0,0,0-2.37,13.94l.14.19,7.67,10.32a10,10,0,0,1-2,14,10.13,10.13,0,0,1-3,1.52l-12.27,3.84a10,10,0,0,0-6.57,12.52c0,.08.05.15.07.22L386,248.22a10,10,0,0,1-6.29,12.67,10.2,10.2,0,0,1-3.29.52l-12.87-.14a10,10,0,0,0-10.11,9.89v.22l.15,12.86a10,10,0,0,1-9.88,10.12,10.12,10.12,0,0,1-3.32-.53l-12.19-4.11A10,10,0,0,0,315.54,296a1.72,1.72,0,0,0-.07.21l-3.83,12.28A10,10,0,0,1,299.09,315a9.83,9.83,0,0,1-3-1.52l-10.32-7.68a10,10,0,0,0-14,2.06l-.13.18-7.45,10.49a10,10,0,0,1-16.3,0l-7.45-10.49a10,10,0,0,0-13.94-2.37l-.18.13L216,313.53a10,10,0,0,1-15.52-5l-3.83-12.28a10,10,0,0,0-12.53-6.56l-.21.07-12.19,4.11a10,10,0,0,1-12.67-6.27,9.87,9.87,0,0,1-.53-3.32l.15-12.86a10,10,0,0,0-9.89-10.11h-.23l-12.86.14a10,10,0,0,1-9.59-13.19L130.18,236a10,10,0,0,0-6.28-12.67l-.22-.07-12.27-3.84a10,10,0,0,1-6.52-12.55,9.89,9.89,0,0,1,1.52-3l7.59-10.3a10,10,0,0,0-2-14l-.19-.14L101.32,172A10,10,0,0,1,99,158.07a9.88,9.88,0,0,1,2.37-2.37l10.49-7.44a10,10,0,0,0,2.29-14l-.1-.13-7.67-10.32a10,10,0,0,1,2-14,10.13,10.13,0,0,1,3-1.52l12.27-3.84A10,10,0,0,0,130.17,92c0-.08,0-.15-.07-.22L126,79.57a10,10,0,0,1,9.59-13.19l12.86.14a10,10,0,0,0,10.2-9.8v-.31l-.15-12.86A10,10,0,0,1,171.68,34l12.19,4.11a10,10,0,0,0,12.67-6.28,1.72,1.72,0,0,0,.07-.21l3.83-12.28A10,10,0,0,1,213,12.83a9.83,9.83,0,0,1,3,1.52L226.28,22a10,10,0,0,0,14-2.06l.13-.18L247.85,9.3a10,10,0,0,1,13.93-2.43A9.76,9.76,0,0,1,264.15,9.21Z" transform="translate(0 0)" style="fill:#ebdd8a"/><path d="M430.92,426.87l-50.61-139a5,5,0,0,0-9.4,3.42l49.9,137.1L375,420a8.87,8.87,0,0,0-8.38,3.05L337,458.86l-54.23-149,10.31,7.67A15,15,0,0,0,316.33,310l3.84-12.28a5,5,0,0,1,6.27-3.27l.1,0,12.19,4.11a15,15,0,0,0,19-9.42,15.22,15.22,0,0,0,.78-5l-.14-12.86a5,5,0,0,1,4.94-5.06h.11l12.87.15h.16a15,15,0,0,0,14.22-19.8l-4.12-12.19a5,5,0,0,1,3.14-6.33l.11,0,12.28-3.83a15,15,0,0,0,9.83-18.8,15.23,15.23,0,0,0-2.27-4.45L402,190.64a5,5,0,0,1,1-7l.1-.07,10.49-7.44a15,15,0,0,0,0-24.47l-10.49-7.44a5,5,0,0,1-1.18-7l.06-.09,7.68-10.32a15,15,0,0,0-7.56-23.27l-12.28-3.84a5,5,0,0,1-3.27-6.27l0-.1,4.11-12.19A15,15,0,0,0,376.3,61.38l-12.87.14h-.05a5,5,0,0,1-5-5v-.05l.14-12.87a15,15,0,0,0-19.79-14.38l-12.19,4.11a5,5,0,0,1-6.34-3.14l0-.1-3.84-12.28A15,15,0,0,0,297.54,8a14.82,14.82,0,0,0-4.48,2.28l-10.32,7.68a5,5,0,0,1-7-1l-.06-.09L268.23,6.32h0a15,15,0,0,0-24.46,0l-7.44,10.49a5,5,0,0,1-3.3,2,4.93,4.93,0,0,1-3.77-.92l-10.32-7.68a15,15,0,0,0-23.27,7.56l-3.84,12.28a5,5,0,0,1-6.27,3.27l-.1,0-12.18-4.11a15,15,0,0,0-19.8,14.38l.15,12.87a5,5,0,0,1-4.95,5h-.11l-12.86-.14h-.17a15,15,0,0,0-15,15,15.27,15.27,0,0,0,.79,4.79l4.11,12.19a5,5,0,0,1-3.28,6.37l-12.28,3.84A15,15,0,0,0,100,122.32a14.82,14.82,0,0,0,2.28,4.48L110,137.16a5,5,0,0,1-1,7l-.09.06-10.49,7.44a15,15,0,0,0,0,24.47l10.49,7.44a5,5,0,0,1,1.18,7l-.06.09L102.35,201a15,15,0,0,0,3.09,21,14.82,14.82,0,0,0,4.48,2.28l12.27,3.83a5,5,0,0,1,3.29,6.26.49.49,0,0,0,0,.11l-4.11,12.19a15,15,0,0,0,14.38,19.8l3.79-.05L91.34,398.69a5,5,0,0,0,9.39,3.42l49.36-135.6a5.06,5.06,0,0,1,2.07,1.22,5,5,0,0,1,1.46,3.6l-.14,12.86a15,15,0,0,0,19.79,14.38l12.19-4.11a5,5,0,0,1,6.34,3.14l0,.1L195.67,310a15,15,0,0,0,18.79,9.84,14.82,14.82,0,0,0,4.48-2.28l10.31-7.67L175,458.86,145.34,423A8.83,8.83,0,0,0,137,420l-46.19,8.45a5,5,0,0,0-9.7-1.54,8.81,8.81,0,0,0,1.55,8.7,8.7,8.7,0,0,0,8.32,3l47.14-8.64,30.55,36.92a8.69,8.69,0,0,0,6.75,3.19,8.93,8.93,0,0,0,1.55-.13,8.7,8.7,0,0,0,6.77-5.67L238.41,314l5.36,7.54a15,15,0,0,0,24.46,0l5.35-7.54,54.7,150.29a8.75,8.75,0,0,0,6.78,5.67,8.93,8.93,0,0,0,1.55.13,8.74,8.74,0,0,0,6.75-3.19l30.55-36.92,47.14,8.64a8.81,8.81,0,0,0,9.87-11.68ZM267.52,305.2l-7.44,10.49a5,5,0,0,1-7,1.19,5.17,5.17,0,0,1-1.19-1.19l-7.44-10.49a14.92,14.92,0,0,0-9.89-6.14,14.6,14.6,0,0,0-2.38-.19,14.94,14.94,0,0,0-8.92,3L213,309.52a5,5,0,0,1-7.75-2.52l-3.84-12.28a15,15,0,0,0-18.8-9.82l-.34.11-12.19,4.11a5,5,0,0,1-6.34-3.14,4.87,4.87,0,0,1-.26-1.65l.14-12.86a15,15,0,0,0-14.83-15.17h-.34l-12.86.14h-.06a5,5,0,0,1-5-5,5.15,5.15,0,0,1,.26-1.6l4.11-12.19a15,15,0,0,0-9.42-19l-.31-.1-12.28-3.84a5,5,0,0,1-3.28-6.26,4.72,4.72,0,0,1,.76-1.5L118,196.62a15,15,0,0,0-3.09-21l-.26-.19L104.21,168a5,5,0,0,1-1.18-7,4.9,4.9,0,0,1,1.18-1.18l10.49-7.45a15,15,0,0,0,3.54-20.92l-.19-.26-7.67-10.32a5,5,0,0,1,1-7,5.3,5.3,0,0,1,1.5-.76l12.28-3.84A15,15,0,0,0,135,90.51c0-.1-.06-.21-.1-.31L130.8,78a5,5,0,0,1,3.14-6.34,5.06,5.06,0,0,1,1.6-.26h.05l12.87.14h.17a15,15,0,0,0,15-15v-.17l-.15-12.86a5,5,0,0,1,5-5.05,4.87,4.87,0,0,1,1.65.26l12.19,4.11a15,15,0,0,0,19-9.42c0-.11.07-.21.1-.32l3.84-12.28A5,5,0,0,1,213,18.27L223.32,26a15,15,0,0,0,21-3.08l.2-.28L252,12.1a5,5,0,0,1,7-1.19,5.17,5.17,0,0,1,1.19,1.19l7.44,10.49a15,15,0,0,0,20.91,3.56,2.83,2.83,0,0,0,.28-.2L299,18.27a5,5,0,0,1,7.75,2.52l3.84,12.28a15,15,0,0,0,18.79,9.84l.32-.1,12.19-4.11a5,5,0,0,1,6.34,3.14,4.87,4.87,0,0,1,.26,1.65l-.14,12.86a15,15,0,0,0,14.83,15.17h.34l12.87-.15a4.9,4.9,0,0,1,4.1,2.07A5,5,0,0,1,381.2,78L377.09,90.2a15,15,0,0,0,9.42,19l.32.1,12.27,3.84a5,5,0,0,1,3.29,6.26,4.72,4.72,0,0,1-.76,1.5L394,131.19a15,15,0,0,0,3.09,21l.26.19,10.49,7.45a5,5,0,0,1,1.18,7,4.9,4.9,0,0,1-1.18,1.18l-10.49,7.45a15,15,0,0,0-3.54,20.92l.19.26,7.67,10.32a5,5,0,0,1-1,7,5.3,5.3,0,0,1-1.5.76l-12.27,3.84A15,15,0,0,0,377,237.31c0,.11.06.21.1.32l4.11,12.19a5,5,0,0,1-.69,4.53,4.83,4.83,0,0,1-4.1,2.06l-12.87-.14a15,15,0,0,0-15.16,14.84v.33l.14,12.86a5,5,0,0,1-4.95,5.05,4.87,4.87,0,0,1-1.65-.26L329.73,285a15,15,0,0,0-19,9.42c0,.11-.07.21-.1.32L306.78,307a5,5,0,0,1-6.27,3.28,5.19,5.19,0,0,1-1.48-.76l-10.32-7.68a15,15,0,0,0-21,3.08l-.2.28Z" transform="translate(0 0)" style="fill:#d8bc19"/><circle cx="256" cy="163.89" r="121.65" style="fill:#fff"/><path d="M256,270.27A106.38,106.38,0,1,1,362.38,163.89h0A106.5,106.5,0,0,1,256,270.27Zm0-202.75a96.38,96.38,0,1,0,96.38,96.38A96.38,96.38,0,0,0,256,67.52Z" transform="translate(0 0)" style="fill:#d8bc19"/><path d="M256,218.41a5,5,0,0,1-3.7-1.64L200.65,160a5,5,0,0,1-.34-6.32l13.95-19.08a5,5,0,0,1,4-2.05h75.4a5,5,0,0,1,4,2.05l13.95,19.08a5,5,0,0,1-.34,6.32L259.7,216.77A5,5,0,0,1,256,218.41Zm-45.21-62.12L256,206l45.21-49.69-10-13.74H220.84Z" transform="translate(0 0)" style="fill:#d8bc19"/><path d="M256,218.41a5,5,0,0,1-4.78-3.54l-17.37-56.78a5,5,0,0,1-.07-2.65l4.69-19.08a5,5,0,0,1,4.85-3.81h25.36a5,5,0,0,1,4.85,3.81l4.69,19.08a5,5,0,0,1-.07,2.65l-17.37,56.78A5,5,0,0,1,256,218.41Zm-12.18-61.92L256,196.32l12.18-39.83-3.42-13.94H247.24Z" transform="translate(0 0)" style="fill:#d8bc19"/><path d="M307.65,161.63H204.35a5,5,0,0,1,0-10h103.3a5,5,0,0,1,0,10Z" transform="translate(0 0)" style="fill:#d8bc19"/><path d="M262.25,244.91h-12.5a5,5,0,0,1,0-10h12.5a5,5,0,0,1,0,10Z" transform="translate(0 0)" style="fill:#d8bc19"/><path d="M256,117.94a5,5,0,0,1-5-5V87.88h-.44a5,5,0,0,1,0-10H256a5,5,0,0,1,5,5v30.06A5,5,0,0,1,256,117.94Z" transform="translate(0 0)" style="fill:#d8bc19"/><path d="M64.28,261a5,5,0,0,1-3.54-1.46l-6.46-6.47-6.47,6.47a5,5,0,0,1-7.07-7.07l10-10a5,5,0,0,1,7.07,0l10,10A5,5,0,0,1,64.28,261Z" transform="translate(0 0)" style="fill:#ebdd8a"/><path d="M467.72,210.4a5,5,0,0,1-3.53-1.46l-6.47-6.47-6.46,6.47a5,5,0,0,1-7.07-7.07l10-10a5,5,0,0,1,7.07,0l10,10a5,5,0,0,1-3.54,8.53Z" transform="translate(0 0)" style="fill:#ebdd8a"/><path d="M441,271a5,5,0,0,1-3.54-1.46L431,263.11l-6.46,6.47a5,5,0,0,1-7.08-7.07l10-10a5,5,0,0,1,7.07,0h0l10,10A5,5,0,0,1,441,271Z" transform="translate(0 0)" style="fill:#ebdd8a"/><path d="M85.54,316.54A5,5,0,0,1,82,308l10-10A5,5,0,1,1,99.19,305l-.12.12-10,10A5,5,0,0,1,85.54,316.54Z" transform="translate(0 0)" style="fill:#ebdd8a"/><path d="M72.55,91.58A5,5,0,0,1,69,83L79,73A5,5,0,1,1,86.19,80l-.12.12-10,10A5,5,0,0,1,72.55,91.58Z" transform="translate(0 0)" style="fill:#ebdd8a"/></svg>